HIERARCHY
ROOT hip
{
	OFFSET 0.000000 0.000000 0.000000 
	CHANNELS 6 Xposition Yposition Zposition Xrotation Zrotation Yrotation
	JOINT abdomen
	{
		OFFSET 0.000000 3.402643 0.000000 
		CHANNELS 3 Xrotation Zrotation Yrotation
		JOINT chest
		{
			OFFSET 0.000000 8.438565 -0.680529 
			CHANNELS 3 Xrotation Zrotation Yrotation
			JOINT neck
			{
				OFFSET 0.000000 10.207942 -0.272212 
				CHANNELS 3 Xrotation Zrotation Yrotation
				JOINT head
				{
					OFFSET 0.000000 3.130431 0.000000 
					CHANNELS 3 Xrotation Zrotation Yrotation
					End Site
					{
						OFFSET 0.000000 3.130435 0.000000 
					}
				}
			}
			JOINT lCollar
			{
				OFFSET 3.470700 6.669187 -0.816635 
				CHANNELS 3 Yrotation Zrotation Xrotation
				JOINT lShldr
				{
					OFFSET 3.198488 0.000000 0.000000 
					CHANNELS 3 Zrotation Yrotation Xrotation
					JOINT lForeArm
					{
						OFFSET 10.139888 0.000000 0.000000 
						CHANNELS 3 Yrotation Zrotation Xrotation
						JOINT lHand
						{
							OFFSET 8.370511 0.000000 0.000000 
							CHANNELS 3 Zrotation Yrotation Xrotation
							End Site
							{
								OFFSET 4.083176 0.000000 0.000000 
							}
						}
					}
				}
			}
			JOINT rCollar
			{
				OFFSET -3.470700 6.669187 -0.816635 
				CHANNELS 3 Yrotation Zrotation Xrotation
				JOINT rShldr
				{
					OFFSET -3.198488 0.000000 0.000000 
					CHANNELS 3 Zrotation Yrotation Xrotation
					JOINT rForeArm
					{
						OFFSET -10.139888 0.000000 0.000000 
						CHANNELS 3 Yrotation Zrotation Xrotation
						JOINT rHand
						{
							OFFSET -8.370511 0.000000 0.000000 
							CHANNELS 3 Zrotation Yrotation Xrotation
							End Site
							{
								OFFSET -4.083176 0.000000 0.000000 
							}
						}
					}
				}
			}
		}
	}
	JOINT lThigh
	{
		OFFSET 5.308129 -1.633274 1.361059 
		CHANNELS 3 Xrotation Zrotation Yrotation
		JOINT lShin
		{
			OFFSET -2.041588 -20.007561 0.000000 
			CHANNELS 3 Xrotation Zrotation Yrotation
			JOINT lFoot
			{
				OFFSET 0.000000 -19.190928 -1.224953 
				CHANNELS 3 Xrotation Yrotation Zrotation
				End Site
				{
					OFFSET 0.000000 -2.449906 4.627600 
				}
			}
		}
	}
	JOINT rThigh
	{
		OFFSET -5.308129 -1.633274 1.361059 
		CHANNELS 3 Xrotation Zrotation Yrotation
		JOINT rShin
		{
			OFFSET 2.041588 -20.007561 0.000000 
			CHANNELS 3 Xrotation Zrotation Yrotation
			JOINT rFoot
			{
				OFFSET 0.000000 -19.190928 -1.224953 
				CHANNELS 3 Xrotation Yrotation Zrotation
				End Site
				{
					OFFSET 0.000000 -2.449906 4.627600 
				}
			}
		}
	}
}
MOTION
Frames: 15
Frame Time: 0.011111
0.217824 50.162086 -89.642822 2.701494 1.328119 -11.219482 41.434780 0.032491 -5.797385 -28.511818 4.337900 -1.807662 -6.116787 -0.044035 3.086187 -18.794924 -1.248078 6.413705 8.861669 -1.932660 3.351237 -72.771805 -27.340698 54.196350 -88.436935 4.433332 33.991039 8.524705 12.647240 -24.534559 -6.806992 -0.756156 2.905732 66.887520 21.480167 41.513123 88.114655 -4.099173 33.713631 -8.534408 -12.637552 57.464703 8.854689 2.402365 14.106172 95.557144 1.971263 -9.805546 17.117350 12.419542 -5.428856 -27.240906 -0.293582 3.879802 47.798832 4.000670 6.957266 -18.559877 -0.320340 2.698479 
0.198163 49.942707 -88.182976 2.676335 0.326068 -11.823977 42.220680 0.384126 -4.288521 -28.457544 3.813010 -1.436542 -6.937654 0.833896 2.901339 -18.584803 -1.856125 6.321998 8.861669 -1.932660 3.351237 -72.576508 -26.624598 53.681618 -88.230179 4.221728 33.808540 8.524705 12.647240 -24.866590 -6.806992 -0.756156 2.905732 67.152084 24.693680 42.394535 88.236824 -4.230609 33.828835 -8.534408 -12.637552 57.298683 6.135061 5.249225 16.118015 99.785866 2.585762 -9.782769 16.528179 9.746297 -4.563400 -25.217392 0.741127 4.269264 48.556671 3.922349 7.027306 -20.516438 0.335616 2.792147 
0.161651 49.822872 -86.674423 3.021566 -0.698762 -11.791806 42.132011 1.387583 -3.382411 -27.961100 3.042319 -1.289924 -7.376686 1.392152 2.926527 -18.323870 -1.803172 6.488849 8.861669 -1.932660 3.351237 -72.283417 -25.565336 52.332329 -88.110100 4.089869 33.703793 8.524705 12.647240 -24.388073 -6.806992 -0.756156 2.905732 67.607506 28.040443 43.798409 88.309738 -4.307026 33.895687 -8.534408 -12.637552 57.093605 2.662475 8.696008 17.577543 103.695572 3.152995 -9.744572 17.019306 6.655872 -3.645468 -23.293718 1.561578 3.990795 48.772419 3.895446 7.072672 -22.195164 0.630201 2.783718 
0.122642 49.731438 -85.154037 3.395640 -1.626178 -11.043730 41.790344 2.828332 -3.059851 -27.477280 2.437680 -1.367337 -7.512749 1.685699 3.004421 -18.225166 -1.706984 6.701724 8.861669 -1.932660 3.351237 -72.153625 -24.408867 51.087223 -88.004402 3.972662 33.608459 8.524705 12.647240 -23.675184 -6.806992 -0.756156 2.905732 67.865166 31.245964 45.306553 88.381599 -4.382421 33.943897 -8.534408 -12.637552 56.751812 -1.007217 11.936468 17.856176 107.200424 3.660180 -9.658950 17.292242 4.167885 -2.917283 -21.451406 2.108652 3.223764 49.037270 3.883296 7.099473 -23.840712 0.696208 2.671889 
0.080202 49.569473 -83.715706 3.591217 -2.202307 -10.030920 41.692356 3.941840 -3.256455 -27.899872 2.829234 -1.610653 -6.798217 1.062825 3.149774 -18.262562 -1.497086 6.816844 8.861669 -1.932660 3.351237 -72.755379 -22.548717 50.054005 -87.892387 3.845800 33.494511 8.524705 12.647240 -22.542370 -6.806992 -0.756156 2.905732 67.157066 33.524078 46.836090 88.544670 -4.547568 34.088032 -8.534408 -12.637552 56.390484 -4.697254 13.992602 16.933985 110.327751 4.127302 -9.565624 16.691702 2.953188 -2.625074 -19.734032 2.372503 2.511663 49.234291 3.863678 7.107574 -25.220615 -0.085958 2.203017 
0.051803 49.441212 -82.255844 3.688525 -2.346480 -9.076201 41.483658 4.577600 -3.743140 -28.483400 3.612401 -1.901092 -5.831821 0.193402 3.254808 -18.312836 -1.441513 6.838288 8.861669 -1.932660 3.351237 -73.533943 -20.490067 49.218079 -87.990189 3.956606 33.589588 8.524705 12.647240 -20.432997 -6.806992 -0.756156 2.905732 66.195305 35.535412 48.300991 88.696907 -4.693388 34.204590 -8.534408 -12.637552 56.146339 -8.162724 14.993889 15.639310 112.815132 4.459081 -9.484749 15.870463 2.380822 -2.553240 -18.124517 2.246118 1.590720 49.234711 3.850015 7.111329 -26.107805 -1.997203 1.215477 
0.029959 49.387535 -80.738586 3.918051 -2.551157 -8.436606 41.051590 4.961962 -3.497212 -28.524349 3.778143 -1.909646 -5.960886 0.014348 3.068363 -17.522779 -1.827517 6.474205 8.861669 -1.932660 3.351237 -73.685760 -19.192959 49.181007 -88.039803 4.012161 33.646931 8.524705 12.647240 -18.206432 -6.806992 -0.756156 2.905732 65.922752 37.839455 49.103691 88.795219 -4.788911 34.291969 -8.534408 -12.637552 55.423687 -11.707074 16.098869 14.767130 114.689682 4.740963 -9.386698 15.679797 1.529744 -2.348936 -15.959764 2.166489 1.633702 49.056866 3.883338 7.101142 -27.685425 -1.057625 1.436162 
0.010299 49.426857 -79.186348 4.329605 -2.851427 -8.090225 40.578766 4.947080 -2.294804 -28.245220 3.166752 -1.551691 -7.244807 0.728812 2.490669 -15.798823 -2.505777 5.522815 8.861669 -1.932660 3.351237 -72.744812 -18.712362 50.087845 -88.096207 4.074395 33.694637 8.524705 12.647240 -15.931043 -6.806992 -0.756156 2.905732 66.338768 39.947578 48.821125 88.981430 -4.959732 34.428574 -8.534408 -12.637552 54.408066 -15.737889 17.218901 14.005157 115.979401 4.916745 -9.321507 14.500553 -0.096014 -2.095508 -14.070349 2.372642 1.474919 48.496986 3.932141 7.036122 -28.245041 -2.053310 0.854083 
-0.018412 49.486771 -77.689362 4.607388 -3.323524 -7.723588 40.373573 5.058732 -1.175474 -28.311071 2.786227 -1.251274 -7.689216 1.080664 2.028687 -15.034390 -2.804322 4.717719 8.861669 -1.932660 3.351237 -72.019165 -18.009167 50.809376 -88.201691 4.191281 33.789478 8.524705 12.647240 -14.173230 -6.806992 -0.756156 2.905732 66.411964 41.295975 48.546043 89.328941 -5.266254 34.684628 -8.534408 -12.637552 53.255718 -19.770924 18.304176 12.979284 116.780365 5.023953 -9.296432 12.247196 -1.996820 -1.996818 -11.890435 2.801495 1.534586 47.612106 4.020082 6.930189 -28.213612 -2.932485 0.437826 
-0.027150 49.610352 -76.181450 4.719149 -3.843326 -7.549093 40.280178 5.275050 -0.235859 -28.643280 2.714308 -1.049638 -7.398068 0.998889 1.864496 -14.703167 -2.927710 4.382118 8.861669 -1.932660 3.351237 -71.824173 -16.703695 51.109058 -88.376907 4.373869 33.943012 8.524705 12.647240 -12.981824 -6.806992 -0.756156 2.905732 66.051575 42.096619 48.748917 89.718666 -5.588398 34.953262 -8.534408 -12.637552 52.201027 -23.230654 19.284945 12.097097 116.946579 5.044644 -9.288076 10.579926 -3.830482 -1.948710 -9.315146 3.271199 2.058412 46.391804 4.120544 6.819024 -27.830975 -2.668537 0.631772 
-0.023405 49.860004 -74.593338 4.682781 -4.285649 -7.592029 40.333691 5.177875 1.125730 -28.845148 2.200972 -0.660453 -7.812013 1.359887 1.516356 -13.620830 -3.141498 3.767884 8.861669 -1.932660 3.351237 -70.999725 -15.893201 51.835224 -88.561172 4.560636 34.087482 8.524705 12.647240 -12.015027 -6.806992 -0.756156 2.905732 66.031807 42.755314 48.531624 90.161835 -5.929464 35.244949 -8.534408 -12.637552 51.126816 -25.970329 19.846622 11.321560 116.311279 4.955449 -9.320073 9.801525 -5.619105 -1.871526 -6.459054 3.619666 2.905323 44.885437 4.247820 6.653652 -26.894392 -2.111091 1.057123 
0.010922 50.065037 -72.977135 4.780093 -4.376547 -7.647174 40.018162 4.841330 2.226539 -28.929701 1.607629 -0.290622 -8.205754 1.536011 1.218814 -12.722905 -2.863154 3.163793 8.861669 -1.932660 3.351237 -70.166939 -15.240181 52.466507 -88.684128 4.677560 34.194504 8.524705 12.647240 -11.585340 -6.806992 -0.756156 2.905732 66.097466 43.172550 48.318306 90.746361 -6.347427 35.622787 -8.534408 -12.637552 50.648296 -28.579702 19.644344 10.466143 115.265633 4.800206 -9.381439 9.125727 -6.838930 -1.878188 -3.687788 3.462626 3.884888 43.198990 4.404498 6.461512 -26.116850 -1.756373 1.319487 
0.053051 50.300957 -71.387772 4.822670 -4.473722 -7.364783 39.811974 4.811342 2.975716 -29.054924 1.227684 -0.073357 -8.158394 1.224064 0.978288 -12.649742 -2.219251 2.536363 8.861669 -1.932660 3.351237 -69.797043 -14.583707 52.740593 -88.813210 4.800917 34.291431 8.524705 12.647240 -11.536512 -6.806992 -0.756156 2.905732 65.980690 43.563454 48.325348 91.363998 -6.754894 35.996487 -8.534408 -12.637552 50.970558 -31.333309 19.107515 9.268107 113.859169 4.613784 -9.445827 8.636401 -7.897932 -1.878395 -1.024915 3.228643 4.570439 41.352974 4.557868 6.250781 -25.201773 -1.930257 1.387791 
0.094245 50.603043 -69.703545 5.054259 -4.450242 -7.530629 39.158352 4.422472 3.937554 -28.897045 0.828154 0.271717 -8.248449 1.023406 0.670711 -12.483508 -1.697556 1.819978 8.861669 -1.932660 3.351237 -69.434212 -13.808380 52.907463 -88.982933 4.958809 34.427689 8.524705 12.647240 -11.761121 -6.806992 -0.756156 2.905732 65.881180 43.845188 48.278889 91.896019 -7.080397 36.293617 -8.534408 -12.637552 50.970558 -33.635834 18.471519 8.527296 111.839249 4.331215 -9.522655 8.319192 -8.795515 -1.887080 1.540288 2.876973 5.394713 39.405933 4.708796 6.017108 -23.560226 -2.490167 1.370814 
0.141367 50.895142 -68.088898 4.816041 -4.582147 -7.138615 39.559971 4.196393 4.925083 -29.139568 0.140456 0.590678 -9.141031 1.331013 0.226205 -11.755551 -1.443381 0.990706 8.861669 -1.932660 3.351237 -68.619186 -13.259998 53.287968 -89.156204 5.112842 34.555462 8.524705 12.647240 -12.229871 -6.806992 -0.756156 2.905732 66.069977 43.988888 47.850208 92.456589 -7.402175 36.613770 -8.534408 -12.637552 50.892441 -35.535587 17.635727 7.375546 109.548203 4.000369 -9.595605 7.004097 -9.877039 -2.107167 4.563690 2.594836 5.825958 37.228817 4.849908 5.775415 -20.774252 -3.076020 1.541330 
